<svg width="50" height="39" viewBox="0 0 50 39" fill="none" xmlns="http://www.w3.org/2000/svg">
<g clip-path="url(#clip0_2203_35)">
<path d="M42.2038 3.64999C39.0263 2.192 35.6188 1.11781 32.0561 0.502581C31.9913 0.490707 31.9265 0.52038 31.893 0.579728C31.4548 1.35915 30.9694 2.37597 30.6295 3.17518C26.7976 2.60151 22.9853 2.60151 19.232 3.17518C18.892 2.3582 18.389 1.35915 17.9488 0.579728C17.9153 0.52236 17.8505 0.492687 17.7857 0.502581C14.2249 1.11585 10.8175 2.19003 7.63797 3.64999C7.61044 3.66186 7.58685 3.68166 7.57119 3.70736C1.108 13.3632 -0.662544 22.7818 0.206023 32.0836C0.209953 32.1291 0.235499 32.1726 0.270871 32.2003C4.5351 35.3318 8.66574 37.233 12.7197 38.4931C12.7846 38.5129 12.8533 38.4891 12.8946 38.4357C13.8535 37.1262 14.7084 35.7453 15.4413 34.2932C15.4846 34.2082 15.4433 34.1073 15.3549 34.0737C13.999 33.5593 12.7079 32.9322 11.4659 32.2201C11.3677 32.1627 11.3598 32.0222 11.4502 31.9549C11.7116 31.7591 11.973 31.5553 12.2225 31.3496C12.2677 31.312 12.3306 31.3041 12.3837 31.3278C20.5427 35.0529 29.3757 35.0529 37.4385 31.3278C37.4915 31.3021 37.5545 31.31 37.6016 31.3476C37.8512 31.5533 38.1125 31.7591 38.3759 31.9549C38.4662 32.0222 38.4603 32.1627 38.3621 32.2201C37.1202 32.946 35.8291 33.5593 34.4712 34.0717C34.3828 34.1053 34.3435 34.2082 34.3867 34.2932C35.1354 35.7433 35.9902 37.1241 36.9315 38.4337C36.9708 38.4891 37.0415 38.5129 37.1064 38.4931C41.18 37.233 45.3106 35.3318 49.5748 32.2003C49.6122 32.1726 49.6358 32.131 49.6397 32.0855C50.6792 21.3317 47.8986 11.9903 42.2686 3.70933C42.2549 3.68166 42.2314 3.66186 42.2038 3.64999ZM16.6597 26.4197C14.2033 26.4197 12.1793 24.1646 12.1793 21.395C12.1793 18.6254 14.164 16.3702 16.6597 16.3702C19.175 16.3702 21.1794 18.6452 21.1401 21.395C21.1401 24.1646 19.1553 26.4197 16.6597 26.4197ZM33.2253 26.4197C30.769 26.4197 28.745 24.1646 28.745 21.395C28.745 18.6254 30.7297 16.3702 33.2253 16.3702C35.7407 16.3702 37.745 18.6452 37.7058 21.395C37.7058 24.1646 35.7407 26.4197 33.2253 26.4197Z" fill="#EEE9E1"/>
</g>
<defs>
<clipPath id="clip0_2203_35">
<rect width="50" height="38" fill="white" transform="translate(0 0.5)"/>
</clipPath>
</defs>
</svg>
