<svg width="39" height="39" viewBox="0 0 39 39" fill="none" xmlns="http://www.w3.org/2000/svg">
<g clip-path="url(#clip0_2203_39)">
<path fill-rule="evenodd" clip-rule="evenodd" d="M38.6033 15.5757C38.3487 14.3215 37.9635 13.0879 37.4659 11.9093C36.9797 10.7537 36.372 9.63937 35.668 8.59839C34.9709 7.56658 34.1706 6.59439 33.29 5.71392C32.4071 4.83115 31.4371 4.03092 30.4029 3.33388C29.3618 2.62767 28.2473 2.02463 27.0915 1.53395C25.9129 1.03869 24.6791 0.651185 23.4271 0.398965C22.1429 0.135281 20.822 0 19.5011 0C18.178 0 16.8571 0.135281 15.5729 0.398965C14.3209 0.651185 13.0871 1.03869 11.9084 1.53395C10.7527 2.02463 9.63821 2.62767 8.59481 3.33388C7.56289 4.03092 6.59287 4.83115 5.71 5.71392C4.82713 6.59439 4.02911 7.56658 3.33198 8.59839C2.62568 9.63937 2.02029 10.7537 1.53184 11.9093C1.03422 13.0879 0.651261 14.3215 0.394426 15.5757C0.133004 16.8551 0 18.1781 0 19.4989C0 20.8219 0.133004 22.1449 0.394426 23.4289C0.651261 24.6785 1.03422 25.9144 1.53184 27.0907C2.02029 28.2463 2.62568 29.3629 3.33198 30.4062C4.02911 31.438 4.82713 32.4056 5.71 33.2884C6.59287 34.1711 7.56289 34.9691 8.59481 35.6661C9.63821 36.3723 10.7527 36.9777 11.9084 37.466C13.0871 37.9636 14.3209 38.3442 15.5729 38.601C16.8571 38.867 18.178 39 19.5011 39C20.822 39 22.1429 38.867 23.4271 38.601C24.6791 38.3442 25.9129 37.9636 27.0915 37.466C28.2473 36.9777 29.3618 36.3723 30.4029 35.6661C31.4371 34.9691 32.4071 34.1711 33.29 33.2884C34.1706 32.4056 34.9709 31.438 35.668 30.4062C36.372 29.3629 36.9797 28.2463 37.4659 27.0907C37.9635 25.9144 38.3487 24.6785 38.6033 23.4289C38.867 22.1449 39 20.8219 39 19.4989C39 18.1781 38.867 16.8551 38.6033 15.5757ZM36.1496 19.3338C35.9088 19.281 30.2722 18.0681 24.5507 18.7881C24.4315 18.5037 24.3122 18.2171 24.1907 17.9305C23.8421 17.1142 23.4706 16.3071 23.0831 15.5138C29.6599 12.8288 32.3292 8.96755 32.3613 8.92169C34.6957 11.7603 36.1106 15.3831 36.1496 19.3338ZM30.4992 7.00253C30.4579 7.06673 28.0868 10.6781 21.7989 13.0329C18.9531 7.80275 15.8252 3.64801 15.5752 3.31783C16.8342 3.01288 18.1482 2.84779 19.5011 2.84779C23.716 2.84779 27.5639 4.42072 30.4992 7.00253ZM15.511 3.33159C15.511 3.33388 15.5087 3.33388 15.5087 3.33388C15.5087 3.33388 15.4881 3.33847 15.4583 3.34535C15.4743 3.34076 15.4927 3.33847 15.511 3.33159ZM12.3946 4.43906C12.6147 4.73714 15.6968 8.91022 18.5793 14.0349C10.583 16.1604 3.64156 16.0755 3.20127 16.0687C4.28365 10.9096 7.74863 6.63337 12.3946 4.43906ZM2.84583 19.4989C2.84583 19.3223 2.855 19.148 2.85959 18.9738C3.15311 18.9807 11.3833 19.1664 19.9575 16.6006C20.4345 17.5338 20.8908 18.4831 21.3082 19.4301C21.088 19.492 20.8702 19.5585 20.6523 19.6295C11.6654 22.5347 7.10654 30.6194 7.10654 30.6194C7.10654 30.6194 7.11342 30.6263 7.11342 30.6286C4.46022 27.6776 2.84583 23.7774 2.84583 19.4989ZM19.5011 36.1522C15.4697 36.1522 11.7732 34.7191 8.89063 32.3368C9.11078 32.5134 9.26442 32.628 9.26442 32.628C9.26442 32.628 12.4565 25.6668 22.3332 22.2251C22.3699 22.2114 22.4066 22.1999 22.4456 22.1884C24.7892 28.2784 25.7546 33.3778 26.0023 34.8338C24.0049 35.6822 21.8058 36.1522 19.5011 36.1522ZM28.8068 33.3113C28.6371 32.307 27.7497 27.4185 25.5643 21.418C30.9418 20.5582 35.5992 22.0325 35.9432 22.1449C35.2025 26.7834 32.5447 30.7868 28.8068 33.3113Z" fill="#EEE9E1"/>
</g>
<defs>
<clipPath id="clip0_2203_39">
<rect width="39" height="39" fill="white"/>
</clipPath>
</defs>
</svg>
