<svg width="30" height="30" viewBox="0 0 30 30" fill="none" xmlns="http://www.w3.org/2000/svg">
<path d="M10.0343 24.156C10.0343 24.28 9.89518 24.3793 9.71976 24.3793C9.52018 24.3979 9.38108 24.2986 9.38108 24.156C9.38108 24.0318 9.52018 23.9326 9.69553 23.9326C9.87703 23.914 10.0343 24.0133 10.0343 24.156ZM8.15321 23.8768C8.1109 24.0008 8.23184 24.1435 8.41334 24.1807C8.57053 24.2428 8.75203 24.1807 8.78834 24.0567C8.82458 23.9326 8.70971 23.79 8.52821 23.7341C8.37095 23.6907 8.19553 23.7527 8.15321 23.8768ZM10.8266 23.7714C10.6512 23.8148 10.5302 23.9326 10.5484 24.0753C10.5666 24.1994 10.7238 24.28 10.9052 24.2366C11.0807 24.1931 11.2016 24.0753 11.1834 23.9512C11.1653 23.8334 11.002 23.7527 10.8266 23.7714ZM14.8064 0C6.41734 0 0 6.53215 0 15.1362C0 22.0158 4.22177 27.9028 10.252 29.9747C11.0262 30.1174 11.2984 29.6273 11.2984 29.2241C11.2984 28.8394 11.2802 26.7179 11.2802 25.4152C11.2802 25.4152 7.04637 26.3457 6.15726 23.5666C6.15726 23.5666 5.46775 21.7614 4.4758 21.2962C4.4758 21.2962 3.09073 20.3223 4.57258 20.3409C4.57258 20.3409 6.07863 20.4649 6.90726 21.9413C8.23184 24.3358 10.4516 23.6472 11.3166 23.2378C11.4557 22.2453 11.8488 21.5567 12.2843 21.1473C8.90321 20.7627 5.49193 20.2602 5.49193 14.2926C5.49193 12.5867 5.95161 11.7306 6.91936 10.6388C6.76209 10.2355 6.24798 8.57306 7.07661 6.4267C8.34071 6.02347 11.25 8.10157 11.25 8.10157C12.4597 7.75421 13.7601 7.57432 15.0484 7.57432C16.3367 7.57432 17.6371 7.75421 18.8468 8.10157C18.8468 8.10157 21.7561 6.01727 23.0202 6.4267C23.8488 8.57929 23.3347 10.2355 23.1774 10.6388C24.1452 11.7368 24.7379 12.5928 24.7379 14.2926C24.7379 20.2789 21.1754 20.7565 17.7943 21.1473C18.3508 21.6374 18.8226 22.5679 18.8226 24.0257C18.8226 26.1162 18.8045 28.703 18.8045 29.2117C18.8045 29.6149 19.0827 30.1049 19.8508 29.9623C25.8992 27.9028 30 22.0158 30 15.1362C30 6.53215 23.1955 0 14.8064 0ZM5.87903 21.3954C5.80041 21.4575 5.81855 21.6001 5.92137 21.718C6.01814 21.8173 6.15726 21.8607 6.23589 21.78C6.31452 21.718 6.29637 21.5754 6.19355 21.4575C6.09677 21.3582 5.95766 21.3148 5.87903 21.3954ZM5.22581 20.8929C5.18347 20.9736 5.24395 21.0729 5.36492 21.1349C5.4617 21.1969 5.58266 21.1783 5.625 21.0915C5.66734 21.0108 5.60686 20.9116 5.48589 20.8495C5.36492 20.8123 5.26814 20.8309 5.22581 20.8929ZM7.18548 23.1013C7.08871 23.182 7.125 23.3681 7.26411 23.4859C7.40323 23.6287 7.57863 23.6472 7.65726 23.548C7.73589 23.4674 7.69959 23.2812 7.57863 23.1634C7.44557 23.0207 7.26411 23.0021 7.18548 23.1013ZM6.49597 22.1894C6.3992 22.2515 6.3992 22.4127 6.49597 22.5555C6.59275 22.6982 6.75605 22.7602 6.83468 22.6982C6.93145 22.6175 6.93145 22.4562 6.83468 22.3136C6.75 22.1709 6.59275 22.1088 6.49597 22.1894Z" fill="#EEE9E1"/>
</svg>
