<svg width="39" height="39" viewBox="0 0 39 39" fill="none" xmlns="http://www.w3.org/2000/svg">
<g clip-path="url(#clip0_2203_26)">
<mask id="mask0_2203_26" style="mask-type:luminance" maskUnits="userSpaceOnUse" x="0" y="0" width="39" height="39">
<path d="M39 0H0V39H39V0Z" fill="white"/>
</mask>
<g mask="url(#mask0_2203_26)">
<path d="M19.5 39C30.2696 39 39 30.2696 39 19.5C39 8.73045 30.2696 0 19.5 0C8.73045 0 0 8.73045 0 19.5C0 30.2696 8.73045 39 19.5 39Z" fill="#EEE9E1"/>
<path d="M3.39688 17.7338L30.002 7.12978C31.2368 6.66864 32.3153 7.44118 31.9152 9.37133L31.9175 9.36896L27.3875 31.4303C27.0518 32.9944 26.1527 33.3747 24.8948 32.6378L17.9964 27.3822L14.669 30.6958C14.3011 31.0761 13.9906 31.397 13.2778 31.397L13.7676 24.1399L26.5528 12.2C27.1092 11.6937 26.4286 11.4085 25.6951 11.9124L9.89525 22.1955L3.08415 19.9991C1.60558 19.5142 1.57338 18.4707 3.39688 17.7338Z" fill="black"/>
</g>
</g>
<defs>
<clipPath id="clip0_2203_26">
<rect width="39" height="39" fill="white"/>
</clipPath>
</defs>
</svg>
