<?xml version="1.0" standalone="no"?>
<!DOCTYPE svg PUBLIC "-//W3C//DTD SVG 20010904//EN"
 "http://www.w3.org/TR/2001/REC-SVG-20010904/DTD/svg10.dtd">
<svg version="1.0" xmlns="http://www.w3.org/2000/svg"
 width="912.000000pt" height="912.000000pt" viewBox="0 0 912.000000 912.000000"
 preserveAspectRatio="xMidYMid meet">
<metadata>
Created by potrace 1.14, written by Peter Selinger 2001-2017
</metadata>
<g transform="translate(0.000000,912.000000) scale(0.100000,-0.100000)"
fill="#000000" stroke="none">
<path d="M722 9070 c-5 -3 -8 -1533 -7 -3400 l0 -3395 258 0 c221 0 258 -2
261 -15 3 -8 4 -66 3 -128 -1 -63 1 -116 5 -119 12 -6 1360 -4 1367 3 3 3 6
1287 6 2852 l0 2847 48 5 c26 3 47 3 47 -1 0 -3 17 -3 38 1 20 3 49 3 65 -1
15 -4 27 -4 27 -1 0 4 43 7 95 7 52 0 95 -3 95 -6 0 -4 17 -3 38 1 20 3 49 3
65 -1 15 -4 27 -4 27 -1 0 4 43 7 95 7 52 0 95 -3 95 -6 0 -4 17 -3 38 1 20 3
49 3 65 -1 15 -4 27 -4 27 -1 0 4 43 7 95 7 52 0 95 -3 95 -6 0 -4 17 -3 38 1
20 3 49 3 65 -1 15 -4 27 -4 27 -1 0 6 150 6 235 1 11 0 52 0 92 1 40 1 77 -1
82 -5 6 -3 11 -3 11 2 0 6 188 8 295 2 11 0 52 0 92 1 40 1 77 -1 82 -5 6 -3
11 -3 11 2 0 6 188 8 295 2 11 0 52 0 92 1 40 1 77 -1 82 -5 6 -3 11 -3 11 2
0 4 80 8 177 8 l178 0 0 545 0 544 -260 0 -261 1 1 123 c0 68 -2 127 -5 131
-6 8 -4277 10 -4288 1z"/>
<path d="M2976 7223 c-3 -4 -51 -6 -105 -5 -70 1 -100 -2 -103 -11 -3 -10 -2
-6686 1 -6768 l1 -26 278 1 277 1 1 -128 c1 -70 4 -130 7 -133 6 -7 2184 -6
2282 0 53 4 111 9 225 21 40 5 155 23 185 29 37 8 170 37 185 40 41 10 107 28
120 33 8 4 17 7 20 7 41 9 187 63 192 70 4 6 8 8 8 4 0 -4 21 2 48 13 80 35
97 42 102 43 5 1 215 107 269 135 14 8 28 18 29 23 2 4 8 8 13 8 20 0 260 166
334 232 11 9 43 36 70 60 58 49 240 233 272 275 12 15 30 37 40 48 52 58 170
225 245 351 43 72 169 313 174 334 0 3 5 16 11 30 21 47 74 185 78 200 2 8 18
56 35 105 31 90 47 149 79 280 10 41 12 52 30 153 24 131 22 121 37 237 7 56
8 68 20 210 8 108 13 844 5 859 -2 6 -6 37 -7 70 -2 34 -6 81 -8 106 -13 117
-17 157 -22 183 -12 77 -15 96 -24 137 -5 25 -12 59 -14 75 -9 48 -24 116 -41
180 -9 33 -18 67 -20 75 -11 46 -69 217 -77 228 -6 6 -8 12 -5 12 17 0 -149
362 -235 515 -58 102 -220 334 -270 386 -7 8 -26 30 -42 49 -104 127 -334 338
-471 430 -27 19 -52 37 -55 40 -23 31 -409 238 -520 280 -19 7 -39 17 -45 22
-5 4 -17 8 -26 8 -9 0 -52 18 -96 41 -216 113 -304 157 -344 173 -24 10 -57
24 -74 31 -69 30 -257 94 -327 111 -10 2 -26 6 -35 9 -26 7 -154 36 -178 40
-11 2 -47 8 -80 14 -58 10 -98 16 -195 27 -25 3 -58 8 -75 10 -16 2 -166 6
-332 9 -166 2 -305 5 -310 6 -4 1 -10 1 -13 0 -9 -2 -855 -3 -865 -1 -6 1 -14
2 -20 0 -14 -2 -208 -3 -220 0 -5 1 -14 2 -20 1 -27 -5 -374 -3 -383 3 -5 3
-12 3 -16 -1z m2644 -1376 c14 -2 50 -7 80 -11 119 -15 128 -20 247 -142 61
-62 114 -123 118 -134 3 -11 10 -20 15 -20 5 0 11 -8 14 -18 4 -10 14 -27 24
-38 34 -40 118 -199 162 -309 18 -44 36 -89 42 -100 5 -12 10 -27 12 -35 2 -8
6 -22 9 -30 33 -87 86 -316 103 -450 3 -25 7 -52 9 -60 4 -17 17 -135 20 -195
2 -22 4 -40 5 -40 6 0 6 -800 0 -839 -4 -26 -3 -46 2 -46 5 0 6 -5 2 -11 -4
-7 -8 -31 -9 -55 -4 -65 -19 -196 -31 -269 -11 -71 -16 -96 -40 -205 -13 -63
-29 -126 -34 -140 -6 -14 -12 -34 -14 -45 -11 -51 -73 -210 -123 -312 -48 -99
-124 -224 -180 -294 -79 -99 -290 -289 -321 -289 -7 0 -12 -4 -12 -9 0 -6 -55
-37 -122 -70 -136 -66 -250 -108 -318 -115 -9 -1 -20 -5 -25 -8 -9 -5 -116
-24 -177 -31 -15 -2 -30 -6 -34 -10 -4 -3 -14 -2 -24 3 -10 5 -20 6 -24 3 -3
-4 -69 -8 -146 -10 -127 -2 -140 -1 -141 15 -4 56 -4 4309 0 4320 3 11 82 13
445 9 243 -3 452 -7 466 -10z"/>
</g>
</svg>
